<svg width="20" height="21" viewBox="0 0 20 21" fill="none" xmlns="http://www.w3.org/2000/svg">
<path d="M7.91668 8.41663C7.91668 8.18651 7.73013 7.99996 7.50001 7.99996C7.26989 7.99996 7.08334 8.18651 7.08334 8.41663V14.6666C7.08334 14.8967 7.26989 15.0833 7.50001 15.0833C7.73013 15.0833 7.91668 14.8967 7.91668 14.6666V8.41663Z" fill="#000000"/>
<path d="M12.9167 10.5C12.9167 10.2698 12.7301 10.0833 12.5 10.0833C12.2699 10.0833 12.0833 10.2698 12.0833 10.5V14.6666C12.0833 14.8967 12.2699 15.0833 12.5 15.0833C12.7301 15.0833 12.9167 14.8967 12.9167 14.6666V10.5Z" fill="#000000"/>
<path d="M10.4167 13.4166C10.4167 13.1865 10.2301 13 10 13C9.76989 13 9.58334 13.1865 9.58334 13.4166V14.6666C9.58334 14.8967 9.76989 15.0833 10 15.0833C10.2301 15.0833 10.4167 14.8967 10.4167 14.6666V13.4166Z" fill="#000000"/>
<path fill-rule="evenodd" clip-rule="evenodd" d="M13.0689 4.27973C12.7775 4.25591 12.4302 4.25115 12.0123 4.2502C11.8408 3.76458 11.3777 3.41663 10.8333 3.41663H9.16668C8.62233 3.41663 8.15925 3.76458 7.98772 4.2502C7.5698 4.25115 7.22253 4.25591 6.93108 4.27973C6.55792 4.31022 6.23972 4.37399 5.94837 4.52244C5.47796 4.76213 5.09551 5.14458 4.85583 5.61498C4.70738 5.90634 4.6436 6.22453 4.61311 6.5977C4.58334 6.96211 4.58334 7.41379 4.58334 7.98173V13.8515C4.58334 14.4195 4.58334 14.8711 4.61311 15.2356C4.6436 15.6087 4.70738 15.9269 4.85583 16.2183C5.09551 16.6887 5.47796 17.0711 5.94837 17.3108C6.23972 17.4593 6.55792 17.523 6.93108 17.5535C7.29548 17.5833 7.74713 17.5833 8.31503 17.5833H11.6849C12.2528 17.5833 12.7045 17.5833 13.0689 17.5535C13.4421 17.523 13.7603 17.4593 14.0517 17.3108C14.5221 17.0711 14.9045 16.6887 15.1442 16.2183C15.2926 15.9269 15.3564 15.6087 15.3869 15.2356C15.4167 14.8712 15.4167 14.4195 15.4167 13.8516V7.98172C15.4167 7.4138 15.4167 6.9621 15.3869 6.5977C15.3564 6.22453 15.2926 5.90634 15.1442 5.61498C14.9045 5.14458 14.5221 4.76213 14.0517 4.52244C13.7603 4.37399 13.4421 4.31022 13.0689 4.27973ZM6.99894 5.11029C7.25778 5.08914 7.5739 5.08456 7.9879 5.08357C8.15958 5.56892 8.62252 5.91663 9.16668 5.91663H10.8333C11.3775 5.91663 11.8404 5.56892 12.0121 5.08357C12.4261 5.08456 12.7422 5.08914 13.0011 5.11029C13.3227 5.13657 13.519 5.18633 13.6733 5.26495C13.9869 5.42474 14.2419 5.67971 14.4017 5.99331C14.4803 6.1476 14.5301 6.34393 14.5563 6.66556C14.583 6.99206 14.5833 7.4097 14.5833 7.99996V13.8333C14.5833 14.4236 14.583 14.8412 14.5563 15.1677C14.5301 15.4893 14.4803 15.6856 14.4017 15.8399C14.2419 16.1535 13.9869 16.4085 13.6733 16.5683C13.519 16.6469 13.3227 16.6967 13.0011 16.723C12.6746 16.7496 12.2569 16.75 11.6667 16.75H8.33334C7.74308 16.75 7.32544 16.7496 6.99894 16.723C6.67731 16.6967 6.48099 16.6469 6.32669 16.5683C6.01309 16.4085 5.75812 16.1535 5.59833 15.8399C5.51971 15.6856 5.46996 15.4893 5.44368 15.1677C5.417 14.8412 5.41668 14.4236 5.41668 13.8333V7.99996C5.41668 7.4097 5.417 6.99206 5.44368 6.66556C5.46996 6.34393 5.51971 6.1476 5.59833 5.99331C5.75812 5.67971 6.01309 5.42474 6.32669 5.26495C6.48099 5.18633 6.67731 5.13657 6.99894 5.11029Z" fill="#000000"/>
</svg>
