<svg width="20" height="21" viewBox="0 0 20 21" fill="none" xmlns="http://www.w3.org/2000/svg">
<path d="M8.125 8.41671C8.125 8.07153 7.84518 7.79171 7.5 7.79171C7.15482 7.79171 6.875 8.07153 6.875 8.41671V14.6667C6.875 15.0119 7.15482 15.2917 7.5 15.2917C7.84518 15.2917 8.125 15.0119 8.125 14.6667V8.41671Z" fill="#454BBA"/>
<path d="M13.125 10.5C13.125 10.1549 12.8452 9.87504 12.5 9.87504C12.1548 9.87504 11.875 10.1549 11.875 10.5V14.6667C11.875 15.0119 12.1548 15.2917 12.5 15.2917C12.8452 15.2917 13.125 15.0119 13.125 14.6667V10.5Z" fill="#454BBA"/>
<path d="M10.625 13.4167C10.625 13.0715 10.3452 12.7917 10 12.7917C9.65482 12.7917 9.375 13.0715 9.375 13.4167V14.6667C9.375 15.0119 9.65482 15.2917 10 15.2917C10.3452 15.2917 10.625 15.0119 10.625 14.6667V13.4167Z" fill="#454BBA"/>
<path fill-rule="evenodd" clip-rule="evenodd" d="M13.0859 4.07217C12.8201 4.05045 12.5107 4.04421 12.1517 4.04242C11.9178 3.54934 11.4154 3.20837 10.8333 3.20837H9.16667C8.58464 3.20837 8.08224 3.54934 7.84833 4.04242C7.48935 4.04421 7.1799 4.05045 6.91411 4.07217C6.52806 4.10371 6.17939 4.17099 5.85378 4.3369C5.34417 4.59655 4.92985 5.01088 4.67019 5.52048C4.50428 5.8461 4.437 6.19477 4.40546 6.58082C4.37499 6.95379 4.37499 7.41271 4.375 7.97386V13.8596C4.37499 14.4207 4.37499 14.8796 4.40546 15.2526C4.437 15.6386 4.50428 15.9873 4.67019 16.3129C4.92985 16.8225 5.34417 17.2369 5.85378 17.4965C6.17939 17.6624 6.52806 17.7297 6.91411 17.7612C7.28706 17.7917 7.74596 17.7917 8.30707 17.7917H11.6929C12.254 17.7917 12.7129 17.7917 13.0859 17.7612C13.4719 17.7297 13.8206 17.6624 14.1462 17.4965C14.6558 17.2369 15.0702 16.8225 15.3298 16.3129C15.4957 15.9873 15.563 15.6386 15.5945 15.2526C15.625 14.8796 15.625 14.4207 15.625 13.8596V7.97384C15.625 7.41272 15.625 6.95378 15.5945 6.58082C15.563 6.19477 15.4957 5.8461 15.3298 5.52048C15.0702 5.01088 14.6558 4.59655 14.1462 4.3369C13.8206 4.17099 13.4719 4.10371 13.0859 4.07217ZM7.0159 5.31802C7.23764 5.2999 7.50449 5.29425 7.84905 5.2925C8.08327 5.78477 8.58523 6.12504 9.16667 6.12504H10.8333C11.4148 6.12504 11.9167 5.78477 12.151 5.2925C12.4955 5.29425 12.7624 5.2999 12.9841 5.31802C13.2929 5.34324 13.4587 5.3895 13.5787 5.45066C13.8531 5.59047 14.0762 5.81357 14.2161 6.08797C14.2772 6.208 14.3235 6.37386 14.3487 6.68261C14.3745 6.99865 14.375 7.40634 14.375 8.00004V13.8334C14.375 14.4271 14.3745 14.8348 14.3487 15.1508C14.3235 15.4596 14.2772 15.6254 14.2161 15.7454C14.0762 16.0198 13.8531 16.2429 13.5787 16.3828C13.4587 16.4439 13.2929 16.4902 12.9841 16.5154C12.6681 16.5412 12.2604 16.5417 11.6667 16.5417H8.33333C7.73963 16.5417 7.33195 16.5412 7.0159 16.5154C6.70715 16.4902 6.5413 16.4439 6.42126 16.3828C6.14686 16.2429 5.92376 16.0198 5.78395 15.7454C5.72279 15.6254 5.67653 15.4596 5.65131 15.1508C5.62549 14.8348 5.625 14.4271 5.625 13.8334V8.00004C5.625 7.40634 5.62549 6.99865 5.65131 6.68261C5.67653 6.37386 5.72279 6.208 5.78395 6.08797C5.92376 5.81357 6.14686 5.59047 6.42126 5.45066C6.5413 5.3895 6.70715 5.34324 7.0159 5.31802Z" fill="#454BBA"/>
</svg>
