<svg width="16" height="17" viewBox="0 0 16 17" fill="none" xmlns="http://www.w3.org/2000/svg">
<path d="M3.00863 5.80186C2.80717 5.61299 2.49075 5.6232 2.30189 5.82466C2.11302 6.02611 2.12323 6.34253 2.32469 6.5314L7.08579 10.9949C7.17868 11.082 7.26843 11.1662 7.35022 11.2315C7.44012 11.3033 7.55116 11.3782 7.69338 11.4224C7.89308 11.4844 8.10691 11.4844 8.30661 11.4224C8.44883 11.3782 8.55986 11.3033 8.64976 11.2315C8.73156 11.1662 8.8213 11.082 8.91419 10.9949L13.6753 6.5314C13.8767 6.34253 13.887 6.02611 13.6981 5.82466C13.5092 5.6232 13.1928 5.61299 12.9914 5.80186L8.24165 10.2547C8.13307 10.3565 8.07266 10.4126 8.02576 10.4501C8.01445 10.4591 8.00626 10.4651 8.00081 10.4689H7.99917C7.99372 10.4651 7.98553 10.4591 7.97423 10.4501C7.92732 10.4126 7.86692 10.3565 7.75833 10.2547L3.00863 5.80186Z" fill="#6A6F85"/>
</svg>
