<svg width="20" height="21" viewBox="0 0 20 21" fill="none" xmlns="http://www.w3.org/2000/svg">
<path fill-rule="evenodd" clip-rule="evenodd" d="M13.4619 3.44078C13.167 3.41668 12.8028 3.41668 12.3512 3.41669H7.64884C7.19726 3.41668 6.83303 3.41668 6.53808 3.44078C6.2344 3.46559 5.96765 3.51801 5.72086 3.64376C5.32886 3.84349 5.01015 4.1622 4.81041 4.55421C4.68467 4.80099 4.63225 5.06774 4.60743 5.37143C4.58334 5.66638 4.58334 6.03061 4.58334 6.48218V12.1815C4.58334 12.5572 4.58334 12.8603 4.60017 13.107C4.61747 13.3606 4.65396 13.5849 4.74193 13.7973C4.95337 14.3078 5.35894 14.7133 5.86942 14.9248C6.08179 15.0127 6.30608 15.0492 6.55972 15.0665C6.71161 15.0769 6.88489 15.0809 7.08334 15.0824L7.08334 15.8494C7.08334 16.0691 7.08333 16.2585 7.09608 16.4146C7.10954 16.5793 7.13926 16.7432 7.21959 16.9008C7.33943 17.136 7.53065 17.3273 7.76586 17.4471C7.92351 17.5274 8.08735 17.5572 8.25208 17.5706C8.40815 17.5834 8.59763 17.5834 8.81728 17.5834H11.1827C11.4024 17.5834 11.5919 17.5834 11.7479 17.5706C11.9127 17.5572 12.0765 17.5274 12.2342 17.4471C12.4694 17.3273 12.6606 17.136 12.7804 16.9008C12.8608 16.7432 12.8905 16.5793 12.9039 16.4146C12.9167 16.2585 12.9167 16.0691 12.9167 15.8494V15.0824C13.1151 15.0809 13.2884 15.0769 13.4403 15.0665C13.6939 15.0492 13.9182 15.0127 14.1306 14.9248C14.6411 14.7133 15.0466 14.3078 15.2581 13.7973C15.3461 13.5849 15.3825 13.3606 15.3999 13.107C15.4167 12.8603 15.4167 12.5572 15.4167 12.1815V6.48217C15.4167 6.03062 15.4167 5.66637 15.3926 5.37143C15.3678 5.06774 15.3154 4.80099 15.1896 4.55421C14.9899 4.1622 14.6712 3.84349 14.2792 3.64376C14.0324 3.51801 13.7656 3.46559 13.4619 3.44078ZM7.92665 16.3468C7.917 16.2287 7.91668 16.0736 7.91668 15.8334V15.0834H12.0833V15.8334C12.0833 16.0736 12.083 16.2287 12.0734 16.3468C12.0641 16.4599 12.0484 16.5019 12.0379 16.5225C11.998 16.6009 11.9342 16.6647 11.8558 16.7046C11.8352 16.7151 11.7933 16.7308 11.6801 16.7401C11.562 16.7497 11.4069 16.75 11.1667 16.75H8.83334C8.59311 16.75 8.438 16.7497 8.31994 16.7401C8.20675 16.7308 8.16478 16.7151 8.14418 16.7046C8.06578 16.6647 8.00204 16.6009 7.96209 16.5225C7.95159 16.5019 7.9359 16.4599 7.92665 16.3468ZM6.09919 4.38626C6.20892 4.33035 6.35379 4.29195 6.60594 4.27134C6.86296 4.25034 7.19309 4.25002 7.66668 4.25002H12.3333C12.8069 4.25002 13.1371 4.25034 13.3941 4.27134C13.6462 4.29195 13.7911 4.33035 13.9008 4.38626C14.136 4.5061 14.3273 4.69733 14.4471 4.93253C14.503 5.04226 14.5414 5.18713 14.562 5.43929C14.583 5.6963 14.5833 6.02643 14.5833 6.50002V12.1667C14.5833 12.5607 14.5831 12.8353 14.5685 13.0503C14.554 13.2615 14.5271 13.3845 14.4882 13.4784C14.3613 13.7847 14.118 14.028 13.8117 14.1549C13.7178 14.1938 13.5948 14.2207 13.3836 14.2351C13.1686 14.2498 12.894 14.25 12.5 14.25H7.50001C7.10602 14.25 6.8314 14.2498 6.61645 14.2351C6.40523 14.2207 6.28223 14.1938 6.18832 14.1549C5.88204 14.028 5.6387 13.7847 5.51183 13.4784C5.47293 13.3845 5.44598 13.2615 5.43157 13.0503C5.4169 12.8353 5.41668 12.5607 5.41668 12.1667V6.50002C5.41668 6.02643 5.417 5.6963 5.438 5.43929C5.4586 5.18713 5.49701 5.04226 5.55292 4.93253C5.67276 4.69733 5.86399 4.5061 6.09919 4.38626Z" fill="#000000"/>
</svg>
