<svg width="20" height="21" viewBox="0 0 20 21" fill="none" xmlns="http://www.w3.org/2000/svg">
<path d="M7.91666 8.40831C7.91666 8.17819 7.73011 7.99164 7.49999 7.99164C7.26987 7.99164 7.08332 8.17819 7.08332 8.40831V8.41664C7.08332 8.64676 7.26987 8.83331 7.49999 8.83331C7.73011 8.83331 7.91666 8.64676 7.91666 8.41664V8.40831Z" fill="#000000"/>
<path d="M7.91666 10.4916C7.91666 10.2615 7.73011 10.075 7.49999 10.075C7.26987 10.075 7.08332 10.2615 7.08332 10.4916V10.5C7.08332 10.7301 7.26987 10.9166 7.49999 10.9166C7.73011 10.9166 7.91666 10.7301 7.91666 10.5V10.4916Z" fill="#000000"/>
<path d="M7.91666 12.575C7.91666 12.3449 7.73011 12.1583 7.49999 12.1583C7.26987 12.1583 7.08332 12.3449 7.08332 12.575V12.5833C7.08332 12.8134 7.26987 13 7.49999 13C7.73011 13 7.91666 12.8134 7.91666 12.5833V12.575Z" fill="#000000"/>
<path d="M7.91666 14.6583C7.91666 14.4282 7.73011 14.2416 7.49999 14.2416C7.26987 14.2416 7.08332 14.4282 7.08332 14.6583V14.6666C7.08332 14.8968 7.26987 15.0833 7.49999 15.0833C7.73011 15.0833 7.91666 14.8968 7.91666 14.6666V14.6583Z" fill="#000000"/>
<path fill-rule="evenodd" clip-rule="evenodd" d="M9.62731 3.76215C10.1814 3.48511 10.8333 3.88802 10.8333 4.5075V6.90908L15.511 9.24789C15.7086 9.3467 15.8334 9.54869 15.8334 9.76964V16.75H16.6667C16.8968 16.75 17.0833 16.9365 17.0833 17.1666C17.0833 17.3968 16.8968 17.5833 16.6667 17.5833H10.4195L10.4167 17.5833L10.4138 17.5833H4.58617L4.58332 17.5833L4.58047 17.5833H3.33332C3.1032 17.5833 2.91666 17.3968 2.91666 17.1666C2.91666 16.9365 3.1032 16.75 3.33332 16.75H4.16666V7.0075C4.16666 6.69186 4.34499 6.40331 4.62731 6.26215L9.62731 3.76215ZM10.8333 16.75V7.84077L15.0001 9.92415V16.75H10.8333ZM9.99999 4.5075L9.99999 16.75H4.99999V7.0075L9.99999 4.5075Z" fill="#000000"/>
</svg>
