<svg width="20" height="21" viewBox="0 0 20 21" fill="none" xmlns="http://www.w3.org/2000/svg">
<path d="M14.5777 8.46076C14.8321 8.69401 15.2275 8.67682 15.4607 8.42237C15.694 8.16792 15.6768 7.77256 15.4223 7.53932L11.1289 3.60369C11.014 3.49836 10.9028 3.39638 10.8015 3.31719C10.69 3.23001 10.5527 3.1394 10.3777 3.08589C10.1315 3.0106 9.86846 3.0106 9.62227 3.08589C9.44727 3.1394 9.31003 3.23001 9.1985 3.31719C9.0972 3.39638 8.98598 3.49835 8.87109 3.60369L4.57768 7.53932C4.32323 7.77256 4.30604 8.16792 4.53928 8.42237C4.77253 8.67682 5.16788 8.69401 5.42233 8.46076L9.70156 4.53814C9.83599 4.41491 9.91054 4.34718 9.96832 4.30202C9.98219 4.29117 9.99223 4.28398 9.99891 4.27943H10.0011C10.0078 4.28398 10.0178 4.29118 10.0317 4.30202C10.0895 4.34718 10.164 4.41491 10.2984 4.53814L14.5777 8.46076Z" fill="#6A6F85"/>
<path d="M5.42233 12.5393C5.16788 12.3061 4.77253 12.3233 4.53928 12.5777C4.30604 12.8322 4.32323 13.2275 4.57768 13.4608L8.87109 17.3964C8.98598 17.5017 9.09719 17.6037 9.1985 17.6829C9.31003 17.7701 9.44727 17.8607 9.62227 17.9142C9.86846 17.9895 10.1315 17.9895 10.3777 17.9142C10.5527 17.8607 10.69 17.7701 10.8015 17.6829C10.9028 17.6037 11.014 17.5017 11.1289 17.3964L15.4223 13.4608C15.6768 13.2275 15.694 12.8322 15.4607 12.5777C15.2275 12.3233 14.8321 12.3061 14.5777 12.5393L10.2984 16.4619C10.164 16.5852 10.0895 16.6529 10.0317 16.6981C10.0178 16.7089 10.0078 16.7161 10.0011 16.7206H9.99891C9.99223 16.7161 9.98219 16.7089 9.96832 16.6981C9.91054 16.6529 9.83599 16.5852 9.70156 16.4619L5.42233 12.5393Z" fill="#6A6F85"/>
</svg>
