<svg width="112" height="32" viewBox="0 0 112 32" fill="none" xmlns="http://www.w3.org/2000/svg">
<g clip-path="url(#clip0_3_1611)">
<circle cx="16" cy="16" r="16" fill="#161429" fill-opacity="0.2"/>
<ellipse cx="16" cy="19.2" rx="11.2" ry="11.2" fill="#161429" fill-opacity="0.4"/>
<circle cx="16" cy="16.0001" r="6.4" fill="#161429"/>
</g>
<g clip-path="url(#clip1_3_1611)">
<path d="M66.7356 2.71584C63.6534 2.71584 61.1549 5.22052 61.1549 8.31042C61.1549 11.4003 63.6534 13.905 66.7356 13.905C69.8177 13.905 72.3163 11.4003 72.3163 8.31042C72.3163 5.22052 69.8177 2.71584 66.7356 2.71584ZM66.7356 11.1181C65.1889 11.1181 63.9349 9.86095 63.9349 8.31042C63.9349 6.75979 65.1889 5.50283 66.7356 5.50283C68.2823 5.50283 69.5363 6.75979 69.5363 8.31042C69.5363 9.86095 68.2823 11.1181 66.7356 11.1181Z" fill="#060F33"/>
<path d="M79.2211 2.71584C76.1388 2.71584 73.6404 5.22052 73.6404 8.31042C73.6404 11.4003 76.1388 13.905 79.2211 13.905C82.3032 13.905 84.8018 11.4003 84.8018 8.31042C84.8018 5.22052 82.3032 2.71584 79.2211 2.71584ZM79.2211 11.1181C77.6744 11.1181 76.4204 9.86095 76.4204 8.31042C76.4204 6.75979 77.6744 5.50283 79.2211 5.50283C80.7677 5.50283 82.0218 6.75979 82.0218 8.31042C82.0218 9.86095 80.7677 11.1181 79.2211 11.1181Z" fill="#060F33"/>
<path d="M91.7065 2.71584C88.6244 2.71584 86.1258 5.22052 86.1258 8.31042C86.1258 11.4003 88.6244 13.905 91.7065 13.905C94.7887 13.905 97.2871 11.4003 97.2871 8.31042C97.2871 5.22052 94.7887 2.71584 91.7065 2.71584ZM91.7065 11.1181C90.1598 11.1181 88.9059 9.86095 88.9059 8.31042C88.9059 6.75979 90.1598 5.50283 91.7065 5.50283C93.2533 5.50283 94.5071 6.75979 94.5071 8.31042C94.5071 9.86095 93.2533 11.1181 91.7065 11.1181Z" fill="#060F33"/>
<path d="M99.06 13.905H101.825V5.72205e-06H99.06V13.905Z" fill="#060F33"/>
<path d="M106.759 13.905H103.994V3.47333H106.759V13.905Z" fill="#060F33"/>
<path d="M42.7801 5.59473C42.7801 4.04421 44.034 2.78713 45.5807 2.78713C47.1274 2.78713 48.3814 4.04421 48.3814 5.59473H48.3891V13.9038H51.1692V5.59473H51.1766C51.1766 4.04421 52.4306 2.78713 53.9773 2.78713C55.524 2.78713 56.778 4.04421 56.778 5.59473V13.9038H59.558V5.59473C59.558 2.50494 57.0595 0.00014019 53.9773 0.00014019C52.3032 0.00014019 50.802 0.740153 49.779 1.91103C48.7561 0.740153 47.2552 0.00014019 45.5807 0.00014019C42.4985 0.00014019 40 2.50494 40 5.59473V13.9038H42.7801V5.59473Z" fill="#060F33"/>
<path d="M91.7066 16.7251C90.1598 16.7251 88.9059 15.468 88.9059 13.9175H86.1259C86.1259 17.0073 88.6244 19.5122 91.7066 19.5122C94.7887 19.5122 97.2872 17.0073 97.2872 13.9175H94.5072C94.5072 15.468 93.2532 16.7251 91.7066 16.7251Z" fill="#060F33"/>
<path d="M111.707 12.3014C111.707 13.1872 110.991 13.905 110.108 13.905C109.224 13.905 108.508 13.1872 108.508 12.3014C108.508 11.4156 109.224 10.6977 110.108 10.6977C110.991 10.6977 111.707 11.4156 111.707 12.3014Z" fill="#060F33"/>
</g>
<path d="M43.7072 26.4768C44.0955 26.4768 44.3979 26.376 44.6144 26.1744C44.8384 25.9654 44.9504 25.6891 44.9504 25.3456C44.9504 24.9872 44.8384 24.7072 44.6144 24.5056C44.3979 24.304 44.0955 24.2032 43.7072 24.2032H42.4864V26.4768H43.7072ZM42.4752 27.8096V30.8H40.9296V22.8592H43.8976C44.2859 22.8592 44.6406 22.9227 44.9616 23.0496C45.2827 23.1691 45.559 23.3408 45.7904 23.5648C46.0219 23.7814 46.1974 24.0427 46.3168 24.3488C46.4438 24.6475 46.5072 24.976 46.5072 25.3344C46.5072 25.6928 46.4438 26.0251 46.3168 26.3312C46.1974 26.6374 46.0219 26.8987 45.7904 27.1152C45.559 27.3318 45.2827 27.5035 44.9616 27.6304C44.6406 27.7499 44.2859 27.8096 43.8976 27.8096H42.4752ZM49.3109 30.8V22.8592H50.8565V29.3216H54.3957V30.8H49.3109ZM61.7943 28.9856H58.5687L57.9079 30.8H56.2727L59.3191 22.8592H61.1111L64.1351 30.8H62.4551L61.7943 28.9856ZM59.0839 27.5744H61.2791L60.1815 24.5728L59.0839 27.5744ZM69.312 24.3264V30.8H67.7552V24.3264H65.2464V22.8592H71.8208V24.3264H69.312ZM74.5312 30.8V22.8592H79.5488V24.3264H76.0768V26.2864H79.168V27.7088H76.088V30.8H74.5312ZM83.5843 26.824C83.5843 27.272 83.6552 27.664 83.7971 28C83.9389 28.3286 84.1256 28.6011 84.3571 28.8176C84.596 29.0342 84.8611 29.1984 85.1523 29.3104C85.4509 29.415 85.7533 29.4672 86.0595 29.4672C86.3656 29.4672 86.668 29.415 86.9667 29.3104C87.2653 29.1984 87.5304 29.0342 87.7619 28.8176C88.0008 28.6011 88.1912 28.3286 88.3331 28C88.4749 27.664 88.5459 27.272 88.5459 26.824C88.5459 26.376 88.4749 25.9878 88.3331 25.6592C88.1912 25.3232 88.0008 25.047 87.7619 24.8304C87.5304 24.6139 87.2653 24.4534 86.9667 24.3488C86.668 24.2368 86.3656 24.1808 86.0595 24.1808C85.7533 24.1808 85.4509 24.2368 85.1523 24.3488C84.8611 24.4534 84.596 24.6139 84.3571 24.8304C84.1256 25.047 83.9389 25.3232 83.7971 25.6592C83.6552 25.9878 83.5843 26.376 83.5843 26.824ZM81.9827 26.8352C81.9827 26.1931 82.0947 25.6182 82.3187 25.1104C82.5427 24.5952 82.8413 24.1584 83.2147 23.8C83.588 23.4416 84.0211 23.1691 84.5139 22.9824C85.0067 22.7883 85.5219 22.6912 86.0595 22.6912C86.5971 22.6912 87.1123 22.7883 87.6051 22.9824C88.1053 23.1691 88.5421 23.4416 88.9155 23.8C89.2888 24.1584 89.5875 24.5952 89.8115 25.1104C90.0355 25.6182 90.1475 26.1931 90.1475 26.8352C90.1475 27.4774 90.0355 28.0523 89.8115 28.56C89.5875 29.0678 89.2888 29.5008 88.9155 29.8592C88.5421 30.2176 88.1053 30.4939 87.6051 30.688C87.1123 30.8747 86.5971 30.968 86.0595 30.968C85.5219 30.968 85.0067 30.8747 84.5139 30.688C84.0211 30.4939 83.588 30.2176 83.2147 29.8592C82.8413 29.5008 82.5427 29.0678 82.3187 28.56C82.0947 28.0523 81.9827 27.4774 81.9827 26.8352ZM95.4944 27.7424H94.688V30.8H93.1312V22.8592H96.2336C96.6219 22.8592 96.9691 22.9227 97.2752 23.0496C97.5888 23.1766 97.8539 23.3483 98.0704 23.5648C98.2944 23.7814 98.4661 24.039 98.5856 24.3376C98.7051 24.6363 98.7648 24.9574 98.7648 25.3008C98.7648 25.8608 98.6117 26.3387 98.3056 26.7344C98.0069 27.1302 97.5963 27.4027 97.0736 27.552L98.776 30.8H97.0512L95.4944 27.7424ZM95.9424 26.4096C96.3381 26.4096 96.6443 26.3088 96.8608 26.1072C97.0773 25.9056 97.1856 25.6406 97.1856 25.312C97.1856 24.976 97.0773 24.7072 96.8608 24.5056C96.6443 24.304 96.3381 24.2032 95.9424 24.2032H94.688V26.4096H95.9424ZM109.122 30.8V25.2336L106.837 30.8H105.549L103.264 25.2784V30.8H101.786V22.8592H103.824L106.21 28.5936L108.539 22.8592H110.645V30.8H109.122Z" fill="#6A6F85"/>
<defs>
<clipPath id="clip0_3_1611">
<rect width="32" height="32" fill="white"/>
</clipPath>
<clipPath id="clip1_3_1611">
<rect width="71.7073" height="19.5122" fill="white" transform="translate(40)"/>
</clipPath>
</defs>
</svg>
