<svg width="40" height="40" viewBox="0 0 40 40" fill="none" xmlns="http://www.w3.org/2000/svg">
<rect width="40" height="40" rx="20" fill="#E9EBF2"/>
<path d="M11.3262 20.86L12.9642 20.524V21.448C12.9642 22.036 13.1089 22.4653 13.3982 22.736C13.6876 22.9973 14.0516 23.128 14.4902 23.128C14.9382 23.128 15.2929 22.988 15.5542 22.708C15.8156 22.4187 15.9462 22.022 15.9462 21.518V14.574H17.6262V21.476C17.6262 21.9147 17.5516 22.33 17.4022 22.722C17.2529 23.114 17.0429 23.4593 16.7722 23.758C16.5016 24.0473 16.1749 24.2807 15.7922 24.458C15.4096 24.626 14.9802 24.71 14.5042 24.71C14.0189 24.71 13.5802 24.6353 13.1882 24.486C12.7962 24.3273 12.4602 24.108 12.1802 23.828C11.9096 23.548 11.6996 23.212 11.5502 22.82C11.4009 22.428 11.3262 21.9893 11.3262 21.504V20.86ZM23.4595 22.96C23.8889 22.96 24.2949 22.89 24.6775 22.75C25.0602 22.61 25.3915 22.4 25.6715 22.12C25.9609 21.84 26.1895 21.49 26.3575 21.07C26.5255 20.6407 26.6095 20.1367 26.6095 19.558C26.6095 18.9793 26.5255 18.4753 26.3575 18.046C26.1989 17.6073 25.9749 17.248 25.6855 16.968C25.4055 16.6787 25.0742 16.464 24.6915 16.324C24.3089 16.184 23.9029 16.114 23.4735 16.114H21.6955V22.96H23.4595ZM20.0155 24.5V14.574H23.5295C24.2015 14.574 24.8315 14.686 25.4195 14.91C26.0075 15.1247 26.5162 15.4467 26.9455 15.876C27.3842 16.296 27.7295 16.8187 27.9815 17.444C28.2335 18.06 28.3595 18.7647 28.3595 19.558C28.3595 20.3513 28.2335 21.056 27.9815 21.672C27.7295 22.288 27.3842 22.806 26.9455 23.226C26.5069 23.646 25.9935 23.9633 25.4055 24.178C24.8175 24.3927 24.1875 24.5 23.5155 24.5H20.0155Z" fill="#060F33"/>
</svg>
