<svg width="36" height="37" viewBox="0 0 36 37" fill="none" xmlns="http://www.w3.org/2000/svg">
<rect y="0.5" width="36" height="36" rx="18" fill="#EEF1FE"/>
<path d="M16.125 16.4167C16.125 16.0715 15.8452 15.7917 15.5 15.7917C15.1548 15.7917 14.875 16.0715 14.875 16.4167V22.6667C14.875 23.0119 15.1548 23.2917 15.5 23.2917C15.8452 23.2917 16.125 23.0119 16.125 22.6667V16.4167Z" fill="#454BBA"/>
<path d="M21.125 18.5C21.125 18.1549 20.8452 17.875 20.5 17.875C20.1548 17.875 19.875 18.1549 19.875 18.5V22.6667C19.875 23.0119 20.1548 23.2917 20.5 23.2917C20.8452 23.2917 21.125 23.0119 21.125 22.6667V18.5Z" fill="#454BBA"/>
<path d="M18.625 21.4167C18.625 21.0715 18.3452 20.7917 18 20.7917C17.6548 20.7917 17.375 21.0715 17.375 21.4167V22.6667C17.375 23.0119 17.6548 23.2917 18 23.2917C18.3452 23.2917 18.625 23.0119 18.625 22.6667V21.4167Z" fill="#454BBA"/>
<path fill-rule="evenodd" clip-rule="evenodd" d="M21.0859 12.0722C20.8201 12.0505 20.5107 12.0442 20.1517 12.0424C19.9178 11.5493 19.4154 11.2084 18.8333 11.2084H17.1667C16.5846 11.2084 16.0822 11.5493 15.8483 12.0424C15.4893 12.0442 15.1799 12.0505 14.9141 12.0722C14.5281 12.1037 14.1794 12.171 13.8538 12.3369C13.3442 12.5966 12.9298 13.0109 12.6702 13.5205C12.5043 13.8461 12.437 14.1948 12.4055 14.5808C12.375 14.9538 12.375 15.4127 12.375 15.9739V21.8596C12.375 22.4207 12.375 22.8796 12.4055 23.2526C12.437 23.6386 12.5043 23.9873 12.6702 24.3129C12.9298 24.8225 13.3442 25.2369 13.8538 25.4965C14.1794 25.6624 14.5281 25.7297 14.9141 25.7612C15.2871 25.7917 15.746 25.7917 16.3071 25.7917H19.6929C20.254 25.7917 20.7129 25.7917 21.0859 25.7612C21.4719 25.7297 21.8206 25.6624 22.1462 25.4965C22.6558 25.2369 23.0702 24.8225 23.3298 24.3129C23.4957 23.9873 23.563 23.6386 23.5945 23.2526C23.625 22.8796 23.625 22.4207 23.625 21.8596V15.9738C23.625 15.4127 23.625 14.9538 23.5945 14.5808C23.563 14.1948 23.4957 13.8461 23.3298 13.5205C23.0702 13.0109 22.6558 12.5966 22.1462 12.3369C21.8206 12.171 21.4719 12.1037 21.0859 12.0722ZM15.0159 13.318C15.2376 13.2999 15.5045 13.2943 15.849 13.2925C16.0833 13.7848 16.5852 14.125 17.1667 14.125H18.8333C19.4148 14.125 19.9167 13.7848 20.151 13.2925C20.4955 13.2943 20.7624 13.2999 20.9841 13.318C21.2929 13.3432 21.4587 13.3895 21.5787 13.4507C21.8531 13.5905 22.0762 13.8136 22.2161 14.088C22.2772 14.208 22.3235 14.3739 22.3487 14.6826C22.3745 14.9987 22.375 15.4063 22.375 16V21.8334C22.375 22.4271 22.3745 22.8348 22.3487 23.1508C22.3235 23.4596 22.2772 23.6254 22.2161 23.7454C22.0762 24.0198 21.8531 24.2429 21.5787 24.3828C21.4587 24.4439 21.2929 24.4902 20.9841 24.5154C20.6681 24.5412 20.2604 24.5417 19.6667 24.5417H16.3333C15.7396 24.5417 15.3319 24.5412 15.0159 24.5154C14.7071 24.4902 14.5413 24.4439 14.4213 24.3828C14.1469 24.2429 13.9238 24.0198 13.7839 23.7454C13.7228 23.6254 13.6765 23.4596 13.6513 23.1508C13.6255 22.8348 13.625 22.4271 13.625 21.8334V16C13.625 15.4063 13.6255 14.9987 13.6513 14.6826C13.6765 14.3739 13.7228 14.208 13.7839 14.088C13.9238 13.8136 14.1469 13.5905 14.4213 13.4507C14.5413 13.3895 14.7071 13.3432 15.0159 13.318Z" fill="#454BBA"/>
</svg>
