<svg width="20" height="21" viewBox="0 0 20 21" fill="none" xmlns="http://www.w3.org/2000/svg">
<path d="M10.4167 8.43752V7.58335H11.3333C12.8983 7.58335 14.1667 6.31502 14.1667 4.75002V4.66669C14.1667 4.43669 13.98 4.25002 13.75 4.25002H12.4167C11.5267 4.25002 10.7417 4.66919 10.2225 5.31085C9.80749 4.20669 8.74999 3.41669 7.49999 3.41669H6.24999C6.01999 3.41669 5.83332 3.60335 5.83332 3.83335C5.83332 5.44419 7.13916 6.75002 8.74999 6.75002H9.58332V7.08335V7.16669V8.43752C7.24749 8.64835 5.41666 10.6092 5.41666 13C5.41666 15.5317 7.46832 17.5834 9.99999 17.5834C12.5317 17.5834 14.5833 15.5317 14.5833 13C14.5833 10.6092 12.7525 8.64835 10.4167 8.43752ZM8.74999 5.91669C7.74249 5.91669 6.90166 5.20085 6.70832 4.25002H7.49999C8.50749 4.25002 9.34832 4.96585 9.54166 5.91669H8.74999ZM13.75 13C13.75 13.4642 13.655 13.9034 13.5008 14.3134C13.4183 14.2242 13.33 14.1284 13.2392 14.0284C13.0608 13.8317 12.8792 13.625 12.7308 13.4459C12.5725 13.2534 12.4817 13.1267 12.4558 13.075C12.44 13.0434 12.4208 12.9742 12.4042 12.8342C12.3967 12.7734 12.3908 12.71 12.3842 12.6384C12.3833 12.6325 12.3833 12.6267 12.3825 12.62C12.375 12.5434 12.3675 12.4584 12.3558 12.3734C12.3167 12.07 12.2217 11.5625 11.7483 11.3259C11.5042 11.2042 11.2642 11.2117 11.0575 11.2684C10.8675 11.32 10.6875 11.4184 10.5458 11.4975C10.54 11.5009 10.5342 11.5042 10.5283 11.5075C10.2175 11.68 9.99582 11.8034 9.73916 11.8034C9.57666 11.8034 9.46666 11.7142 9.43332 11.5267C9.39666 11.325 9.46332 11.0025 9.77332 10.6917C10.1242 10.3409 10.5883 10.0417 10.98 9.82502C11.1733 9.71835 11.3433 9.63502 11.4642 9.57835C11.4775 9.57252 11.4825 9.57002 11.4942 9.56502C12.8208 10.1417 13.75 11.4609 13.75 13ZM12.4167 5.08335H13.3058C13.1475 6.02919 12.3242 6.75002 11.3333 6.75002H10.4442C10.6033 5.80419 11.4258 5.08335 12.4167 5.08335ZM6.61499 11.4109C6.67082 11.4509 6.72832 11.4942 6.78582 11.5425C7.07749 11.7875 7.23999 12.03 7.23999 12.2184C7.23999 12.2784 7.20082 12.4059 7.05916 12.6009C6.92666 12.7834 6.74082 12.9759 6.54249 13.1559C6.45666 13.2342 6.37082 13.3059 6.28832 13.3734C6.27499 13.2492 6.24999 13.1284 6.24999 13C6.24999 12.43 6.38749 11.895 6.61499 11.4109ZM6.48832 14.2767C6.49249 14.2734 6.49416 14.2725 6.49832 14.2692C6.66166 14.1467 6.88082 13.9734 7.10166 13.7725C7.32082 13.5742 7.55249 13.3384 7.73249 13.0909C7.90416 12.855 8.07332 12.5484 8.07332 12.2184C8.07332 11.6259 7.63332 11.1659 7.32249 10.9042C7.23082 10.8267 7.14082 10.76 7.05749 10.7009C7.74332 9.82419 8.79999 9.25002 9.99999 9.25002C10.0958 9.25002 10.1867 9.27085 10.2808 9.27835C9.91832 9.49752 9.52332 9.76252 9.18499 10.1009C8.71416 10.5717 8.52082 11.16 8.61416 11.6742C8.70999 12.2034 9.12166 12.635 9.73999 12.635C10.2217 12.635 10.6217 12.41 10.89 12.2592C10.9117 12.2475 10.9317 12.2359 10.9517 12.225C11.1025 12.1409 11.1992 12.0925 11.2783 12.0717C11.3408 12.055 11.3608 12.0625 11.3767 12.0709C11.4242 12.095 11.4892 12.1675 11.53 12.48C11.5392 12.5484 11.5458 12.62 11.5533 12.6967C11.5542 12.7034 11.5542 12.71 11.555 12.7167C11.5617 12.7859 11.5683 12.8609 11.5775 12.9334C11.5958 13.0834 11.6267 13.2775 11.7117 13.4467C11.7867 13.5959 11.9392 13.7934 12.0883 13.975C12.2483 14.1692 12.44 14.3859 12.6225 14.5875C12.8017 14.785 12.9733 14.9692 13.1025 15.1067C12.9817 15.2842 12.8425 15.4475 12.6942 15.6017C12.6908 15.5975 12.6875 15.595 12.6842 15.5909C12.5542 15.4484 12.3958 15.2784 12.2292 15.1142C12.0642 14.9525 11.88 14.7867 11.6983 14.6592C11.535 14.545 11.2983 14.4059 11.0425 14.4059C10.7017 14.4059 10.4533 14.5725 10.3292 14.6559C10.3133 14.6667 10.3 14.6759 10.2883 14.6825C10.2467 14.7092 10.2258 14.7192 10.2167 14.7225C10.2108 14.7209 10.2017 14.7175 10.1875 14.71C10.165 14.6984 10.125 14.6684 10.0642 14.5842C10.0183 14.5209 9.97999 14.455 9.93249 14.3742C9.91332 14.3409 9.89166 14.305 9.86749 14.265C9.74166 14.0559 9.48082 13.625 8.95916 13.625C8.45999 13.625 8.15582 14.0009 8.00082 14.3109C7.83832 14.6359 7.76166 15.0259 7.76166 15.3434C7.76166 15.555 7.79916 15.8109 7.84166 16.0575C7.22249 15.6209 6.75166 15.0009 6.48832 14.2767ZM8.78582 16.5317C8.76499 16.4417 8.74082 16.3359 8.71582 16.215C8.65082 15.8992 8.59416 15.5567 8.59416 15.3442C8.59416 15.1409 8.64749 14.88 8.74582 14.6842C8.85166 14.4734 8.93749 14.4584 8.95916 14.4584C8.95999 14.4584 8.95999 14.4584 8.96082 14.4584C8.96582 14.4584 8.97332 14.4575 8.99832 14.4809C9.03832 14.5175 9.08499 14.5809 9.15332 14.695C9.16666 14.7167 9.18082 14.7417 9.19666 14.7684C9.24999 14.8592 9.31666 14.9734 9.38666 15.0709C9.48166 15.2025 9.61666 15.3575 9.81416 15.4559C9.99166 15.545 10.1725 15.5775 10.3533 15.5459C10.52 15.5167 10.6508 15.4392 10.7325 15.3875C10.755 15.3734 10.775 15.3609 10.7933 15.3484C10.93 15.2617 10.9658 15.2392 11.0417 15.2392C11.0358 15.2392 11.0358 15.2392 11.0425 15.2417C11.0592 15.2475 11.115 15.2684 11.22 15.3417C11.3475 15.4309 11.4933 15.56 11.645 15.7084C11.7892 15.8492 11.9275 15.9984 12.0508 16.1334C11.4608 16.5209 10.7583 16.75 9.99999 16.75C9.57249 16.75 9.16832 16.6634 8.78582 16.5317Z" fill="#000000"/>
</svg>
