<svg width="20" height="21" viewBox="0 0 20 21" fill="none" xmlns="http://www.w3.org/2000/svg">
<path d="M5.41666 8C5.41666 7.77 5.60332 7.58333 5.83332 7.58333H10.8333C11.0633 7.58333 11.25 7.77 11.25 8C11.25 8.23 11.0633 8.41667 10.8333 8.41667H5.83332C5.60332 8.41667 5.41666 8.23 5.41666 8Z" fill="#000000"/>
<path d="M5.41666 10.0833C5.41666 9.85333 5.60332 9.66667 5.83332 9.66667H10.8333C11.0633 9.66667 11.25 9.85333 11.25 10.0833C11.25 10.3133 11.0633 10.5 10.8333 10.5H5.83332C5.60332 10.5 5.41666 10.3133 5.41666 10.0833Z" fill="#000000"/>
<path d="M5.83332 11.75C5.60332 11.75 5.41666 11.9367 5.41666 12.1667C5.41666 12.3967 5.60332 12.5833 5.83332 12.5833H7.49999C7.72999 12.5833 7.91666 12.3967 7.91666 12.1667C7.91666 11.9367 7.72999 11.75 7.49999 11.75H5.83332Z" fill="#000000"/>
<path fill-rule="evenodd" clip-rule="evenodd" d="M13.75 7.98165V10.9166C15.5908 10.9166 17.0833 12.4091 17.0833 14.25C17.0833 16.0908 15.5908 17.5833 13.75 17.5833C13.2717 17.5833 12.8183 17.4783 12.4067 17.2966C12.4021 17.2989 12.3983 17.3017 12.3945 17.3044C12.3914 17.3067 12.3884 17.3089 12.385 17.3108C12.0942 17.4591 11.7758 17.5225 11.4025 17.5533C11.0383 17.5833 10.5867 17.5833 10.0183 17.5833H6.64832C6.08082 17.5833 5.62916 17.5833 5.26416 17.5533C4.89166 17.5233 4.57332 17.4591 4.28166 17.3108C3.81166 17.0708 3.42916 16.6891 3.18916 16.2183C3.04082 15.9275 2.97749 15.6091 2.94666 15.2358C2.91666 14.8716 2.91666 14.4191 2.91666 13.8516V7.98165C2.91666 7.41415 2.91666 6.96248 2.94666 6.59748C2.97666 6.22498 3.04082 5.90665 3.18916 5.61498C3.42916 5.14498 3.81166 4.76248 4.28166 4.52248C4.57332 4.37415 4.89166 4.30998 5.26416 4.27998C5.55582 4.25581 5.90332 4.25081 6.32082 4.25081C6.49249 3.76581 6.95582 3.41748 7.49999 3.41748H9.16666C9.71166 3.41748 10.1742 3.76498 10.3458 4.25081C10.7642 4.25165 11.1108 4.25581 11.4025 4.27998C11.775 4.30998 12.0933 4.37415 12.385 4.52248C12.8558 4.76248 13.2375 5.14498 13.4775 5.61498C13.6258 5.90581 13.6892 6.22415 13.72 6.59748C13.75 6.96165 13.75 7.41415 13.75 7.98165ZM16.2083 13.8333C16.0317 12.7875 15.2117 11.9683 14.1667 11.7916V13.8333H16.2083ZM9.99999 16.75C10.59 16.75 11.0075 16.75 11.3342 16.7233C11.3783 16.7195 11.4121 16.7137 11.4462 16.7078C11.4648 16.7045 11.4835 16.7013 11.5042 16.6983C10.84 16.0891 10.4167 15.2225 10.4167 14.25C10.4167 12.6983 11.4817 11.4058 12.9167 11.0341V7.99998C12.9167 7.40998 12.9167 6.99248 12.89 6.66581C12.8633 6.34415 12.8133 6.14748 12.735 5.99331C12.575 5.67998 12.32 5.42498 12.0067 5.26498C11.8517 5.18581 11.6558 5.13581 11.3342 5.10998C11.075 5.08915 10.7592 5.08415 10.345 5.08331C10.1733 5.56915 9.71082 5.91665 9.16666 5.91665H7.49999C6.95582 5.91665 6.49249 5.56831 6.32082 5.08331C5.90749 5.08498 5.59082 5.08915 5.33249 5.10998C5.01082 5.13665 4.81416 5.18665 4.65999 5.26498C4.34666 5.42498 4.09166 5.67998 3.93166 5.99331C3.85249 6.14748 3.80249 6.34415 3.77666 6.66581C3.74999 6.99248 3.74999 7.40998 3.74999 7.99998V13.8333C3.74999 14.4233 3.74999 14.8408 3.77666 15.1675C3.80332 15.4891 3.85332 15.6858 3.93166 15.84C4.09166 16.1533 4.34666 16.4083 4.65999 16.5683C4.81416 16.6475 5.01082 16.6975 5.33249 16.7233C5.65916 16.75 6.07666 16.75 6.66666 16.75H9.99999ZM11.25 14.25C11.25 15.6308 12.3692 16.75 13.75 16.75C14.9883 16.75 16.0083 15.8483 16.2083 14.6666H14.1667C13.7067 14.6666 13.3333 14.2933 13.3333 13.8333V11.7916C12.1517 11.9916 11.25 13.0116 11.25 14.25Z" fill="#000000"/>
</svg>
