<svg width="20" height="21" viewBox="0 0 20 21" fill="none" xmlns="http://www.w3.org/2000/svg">
<g clip-path="url(#clip0_3_1663)">
<path d="M9.91732 8.96121V10.6529M9.91732 8.96121L9.58733 8.71364C9.07401 8.32871 8.43908 8.14183 7.79908 8.18731C7.15908 8.23279 6.55695 8.50757 6.10322 8.96121C5.88856 8.74654 5.63372 8.57626 5.35325 8.46008C5.07279 8.3439 4.77218 8.2841 4.4686 8.2841C4.16502 8.2841 3.86441 8.3439 3.58395 8.46008C3.30348 8.57626 3.04864 8.74654 2.83398 8.96121C2.83398 5.04903 6.00514 1.87788 9.91732 1.87788M9.91732 8.96121L10.2473 8.71364C10.7606 8.32871 11.3956 8.14183 12.0356 8.18731C12.6756 8.23279 13.2777 8.50757 13.7314 8.96121C13.9461 8.74654 14.2009 8.57626 14.4814 8.46008C14.7619 8.3439 15.0625 8.2841 15.366 8.2841C15.6696 8.2841 15.9702 8.3439 16.2507 8.46008C16.5312 8.57626 16.786 8.74654 17.0007 8.96121C17.0007 5.04903 13.8295 1.87788 9.91732 1.87788M9.91732 1.87788V1.33301" stroke="#000000" stroke-linecap="round" stroke-linejoin="round"/>
<path fill-rule="evenodd" clip-rule="evenodd" d="M10.1668 13.6429C9.14117 13.6429 8.3097 14.4743 8.3097 15.5C8.3097 16.5257 9.14117 17.3571 10.1668 17.3571C11.1925 17.3571 12.024 16.5257 12.024 15.5C12.024 14.4743 11.1925 13.6429 10.1668 13.6429ZM9.16684 15.5C9.16684 14.9477 9.61455 14.5 10.1668 14.5C10.7191 14.5 11.1668 14.9477 11.1668 15.5C11.1668 16.0523 10.7191 16.5 10.1668 16.5C9.61455 16.5 9.16684 16.0523 9.16684 15.5Z" fill="#000000"/>
<path fill-rule="evenodd" clip-rule="evenodd" d="M10.1668 10.5C9.60115 10.5 9.11308 10.8288 8.88184 11.3039C8.77711 11.519 8.67182 11.6339 8.57942 11.6723C8.48933 11.7097 8.34007 11.703 8.11047 11.6238C7.61114 11.4516 7.03367 11.5642 6.63375 11.9641C6.23498 12.3629 6.12185 12.9382 6.29196 13.4365C6.37108 13.6683 6.37802 13.819 6.34001 13.9104C6.30104 14.0042 6.18483 14.1102 5.96807 14.2163C5.49447 14.448 5.16684 14.9354 5.16684 15.5C5.16684 16.065 5.49489 16.5526 5.96897 16.7841C6.18518 16.8898 6.30095 16.9956 6.33971 17.0888C6.37762 17.1801 6.37058 17.3308 6.29092 17.5624C6.11926 18.0615 6.23202 18.6384 6.63163 19.038C7.03237 19.4387 7.6114 19.551 8.11145 19.3772C8.3409 19.2975 8.49019 19.2907 8.58011 19.328C8.67208 19.3662 8.77712 19.4806 8.88142 19.6953C9.11249 20.1708 9.60081 20.5 10.1668 20.5C10.7318 20.5 11.2194 20.172 11.451 19.6979C11.5566 19.4817 11.6624 19.3659 11.7557 19.3271C11.8469 19.2892 11.9977 19.2962 12.2293 19.3759C12.7283 19.5475 13.3052 19.4348 13.7048 19.0352C14.1056 18.6344 14.2178 18.0554 14.0441 17.5554C13.9643 17.3259 13.9575 17.1766 13.9948 17.0867C14.033 16.9948 14.1475 16.8897 14.3621 16.7854C14.8376 16.5544 15.1668 16.066 15.1668 15.5C15.1668 14.9343 14.838 14.4463 14.363 14.215C14.1478 14.1103 14.0329 14.005 13.9945 13.9126C13.9571 13.8225 13.9639 13.6732 14.043 13.4436C14.2152 12.9443 14.1026 12.3668 13.7027 11.9669C13.3039 11.5681 12.7286 11.455 12.2303 11.6251C11.9985 11.7042 11.8478 11.7112 11.7564 11.6732C11.6627 11.6342 11.5566 11.518 11.4506 11.3012C11.2188 10.8276 10.7315 10.5 10.1668 10.5ZM9.65253 11.679C9.74572 11.4876 9.94145 11.3571 10.1668 11.3571C10.3918 11.3571 10.5872 11.4871 10.6806 11.678C10.8075 11.9373 11.0316 12.3001 11.4273 12.4646C11.8249 12.63 12.2377 12.5283 12.5072 12.4363C12.708 12.3677 12.9377 12.4141 13.0966 12.573C13.2559 12.7323 13.3021 12.9629 13.2327 13.1641C13.14 13.4329 13.0382 13.8444 13.2029 14.2412C13.3668 14.6361 13.7286 14.8595 13.9878 14.9857C14.1793 15.0789 14.3097 15.2746 14.3097 15.5C14.3097 15.7255 14.1791 15.9214 13.9875 16.0145C13.7283 16.1404 13.3669 16.3637 13.2031 16.7582C13.0382 17.1557 13.1409 17.5677 13.2344 17.8367C13.3044 18.0382 13.2584 18.2694 13.0987 18.4291C12.9395 18.5883 12.7092 18.6345 12.5081 18.5654C12.2384 18.4726 11.825 18.3701 11.4268 18.5356C11.0314 18.6999 10.8075 19.0624 10.6808 19.3217C10.5875 19.5127 10.3919 19.6429 10.1668 19.6429C9.94132 19.6429 9.74548 19.5123 9.65236 19.3206C9.52642 19.0615 9.30318 18.7 8.9086 18.5363C8.51113 18.3714 8.0991 18.4741 7.8301 18.5676C7.62859 18.6376 7.39739 18.5916 7.23772 18.4319C7.0785 18.2727 7.03227 18.0423 7.10145 17.8412C7.1942 17.5715 7.29674 17.1582 7.13123 16.7599C6.96692 16.3645 6.60444 16.1406 6.34517 16.014C6.15411 15.9206 6.02398 15.7251 6.02398 15.5C6.02398 15.275 6.15394 15.0796 6.34481 14.9862C6.60411 14.8593 6.96695 14.6352 7.13146 14.2395C7.2968 13.8419 7.19512 13.4291 7.10314 13.1596C7.03458 12.9588 7.08096 12.7291 7.23984 12.5702C7.39918 12.4109 7.62976 12.3647 7.83099 12.4341C8.09979 12.5268 8.51123 12.6287 8.90806 12.4639C9.30291 12.3 9.52636 11.9382 9.65253 11.679Z" fill="#000000"/>
</g>
<defs>
<clipPath id="clip0_3_1663">
<rect width="20" height="20" fill="white" transform="translate(0 0.5)"/>
</clipPath>
</defs>
</svg>
