<svg width="20" height="21" viewBox="0 0 20 21" fill="none" xmlns="http://www.w3.org/2000/svg">
<path d="M9.99999 14.9708C10.2876 14.9708 10.5208 15.204 10.5208 15.4917V15.5C10.5208 15.7877 10.2876 16.0208 9.99999 16.0208C9.71234 16.0208 9.47916 15.7877 9.47916 15.5V15.4917C9.47916 15.204 9.71234 14.9708 9.99999 14.9708Z" fill="#000000"/>
<path fill-rule="evenodd" clip-rule="evenodd" d="M8.2157 3.41669H11.7843C12.1894 3.41668 12.5186 3.41668 12.7858 3.43851C13.0617 3.46105 13.3078 3.50893 13.5368 3.62559C13.8974 3.80935 14.1907 4.10256 14.3744 4.46321C14.4911 4.69217 14.539 4.93833 14.5615 5.21423C14.5833 5.48139 14.5833 5.81065 14.5833 6.21572V14.7843C14.5833 15.1894 14.5833 15.5187 14.5615 15.7858C14.539 16.0617 14.4911 16.3079 14.3744 16.5368C14.1907 16.8975 13.8974 17.1907 13.5368 17.3745C13.3078 17.4911 13.0617 17.539 12.7858 17.5615C12.5186 17.5834 12.1894 17.5834 11.7843 17.5834H8.21569C7.81062 17.5834 7.48136 17.5834 7.2142 17.5615C6.9383 17.539 6.69214 17.4911 6.46317 17.3745C6.10253 17.1907 5.80932 16.8975 5.62556 16.5368C5.5089 16.3079 5.46102 16.0617 5.43848 15.7858C5.41665 15.5187 5.41665 15.1894 5.41666 14.7843V6.21573C5.41665 5.81066 5.41665 5.48139 5.43848 5.21423C5.46102 4.93833 5.5089 4.69217 5.62556 4.46321C5.80932 4.10256 6.10253 3.80935 6.46317 3.62559C6.69214 3.50893 6.9383 3.46105 7.2142 3.43851C7.48136 3.41668 7.81062 3.41668 8.2157 3.41669ZM7.28206 4.26907C7.0577 4.2874 6.93341 4.32127 6.8415 4.3681C6.63766 4.47196 6.47193 4.63769 6.36807 4.84153C6.32124 4.93344 6.28737 5.05773 6.26904 5.28209C6.25031 5.51131 6.24999 5.80644 6.24999 6.23335V14.7667C6.24999 15.1936 6.25031 15.4887 6.26904 15.718C6.28737 15.9423 6.32124 16.0666 6.36807 16.1585C6.47193 16.3624 6.63766 16.5281 6.8415 16.6319C6.93341 16.6788 7.0577 16.7126 7.28206 16.731C7.51128 16.7497 7.80641 16.75 8.23332 16.75H11.7667C12.1936 16.75 12.4887 16.7497 12.7179 16.731C12.9423 16.7126 13.0666 16.6788 13.1585 16.6319C13.3623 16.5281 13.5281 16.3624 13.6319 16.1585C13.6787 16.0666 13.7126 15.9423 13.7309 15.718C13.7497 15.4887 13.75 15.1936 13.75 14.7667V6.23335C13.75 5.80644 13.7497 5.51131 13.7309 5.28209C13.7126 5.05773 13.6787 4.93344 13.6319 4.84153C13.5281 4.63769 13.3623 4.47196 13.1585 4.3681C13.0666 4.32127 12.9423 4.2874 12.7179 4.26907C12.4887 4.25034 12.1936 4.25002 11.7667 4.25002L11.6667 4.25002V4.50002C11.6667 4.82219 11.4055 5.08335 11.0833 5.08335H8.91666C8.59449 5.08335 8.33332 4.82219 8.33332 4.50002V4.25002L8.23332 4.25002C7.80641 4.25002 7.51128 4.25034 7.28206 4.26907Z" fill="#000000"/>
</svg>
