<svg width="24" height="24" viewBox="0 0 24 24" fill="none" xmlns="http://www.w3.org/2000/svg">
<path d="M15.596 14.204V9.796C15.596 9.614 15.512 9.48767 15.344 9.417C15.176 9.347 15.028 9.376 14.9 9.504L12.97 11.434C12.808 11.596 12.727 11.7847 12.727 12C12.727 12.2153 12.8077 12.4037 12.969 12.565L14.9 14.496C15.028 14.624 15.176 14.653 15.344 14.583C15.512 14.5123 15.596 14.3857 15.596 14.203V14.204ZM5.616 20C5.168 20 4.78667 19.8427 4.472 19.528C4.15733 19.2133 4 18.8323 4 18.385V5.615C4 5.16833 4.15733 4.78733 4.472 4.472C4.78667 4.15733 5.16767 4 5.615 4H18.385C18.8317 4 19.2127 4.15733 19.528 4.472C19.8427 4.78667 20 5.16767 20 5.615V18.385C20 18.8317 19.8427 19.2127 19.528 19.528C19.2133 19.8427 18.8323 20 18.385 20H5.615H5.616ZM8 19V5H5.615C5.46167 5 5.32067 5.064 5.192 5.192C5.064 5.32067 5 5.46167 5 5.615V18.385C5 18.5383 5.064 18.6793 5.192 18.808C5.32067 18.936 5.46167 19 5.615 19H8ZM9 19H18.385C18.5383 19 18.6793 18.936 18.808 18.808C18.936 18.6793 19 18.5383 19 18.385V5.615C19 5.46167 18.936 5.32067 18.808 5.192C18.6793 5.064 18.5383 5 18.385 5H9V19Z" fill="#6A6F85"/>
</svg>
