<svg width="16" height="15" viewBox="0 0 16 15" fill="none" xmlns="http://www.w3.org/2000/svg">
<path d="M3.98215 0.416626C3.53058 0.416622 3.16635 0.416619 2.8714 0.440717C2.56771 0.465529 2.30096 0.517951 2.05418 0.643696C1.66217 0.843432 1.34346 1.16214 1.14373 1.55415C1.01798 1.80093 0.96556 2.06768 0.940747 2.37137C0.916649 2.66632 0.916652 3.03055 0.916657 3.48212V3.60113C0.916652 4.05271 0.916649 4.41694 0.940747 4.71189C0.96556 5.01557 1.01798 5.28232 1.14373 5.52911C1.34346 5.92111 1.66217 6.23982 2.05418 6.43956C2.30096 6.5653 2.56771 6.61772 2.8714 6.64254C3.16634 6.66663 3.53057 6.66663 3.98214 6.66663H4.10117C4.55274 6.66663 4.91697 6.66663 5.21192 6.64254C5.5156 6.61772 5.78235 6.5653 6.02914 6.43956C6.42114 6.23982 6.73985 5.92111 6.93959 5.52911C7.06533 5.28232 7.11775 5.01557 7.14257 4.71189C7.16666 4.41694 7.16666 4.05271 7.16666 3.60114V3.48211C7.16666 3.03054 7.16666 2.66631 7.14257 2.37137C7.11775 2.06768 7.06533 1.80093 6.93959 1.55415C6.73985 1.16214 6.42114 0.843432 6.02914 0.643696C5.78235 0.517951 5.5156 0.465529 5.21192 0.440717C4.91697 0.416619 4.55274 0.416622 4.10116 0.416626H3.98215Z" fill="#060F33"/>
<path d="M3.98215 8.33329H4.10116C4.55272 8.33329 4.91698 8.33329 5.21192 8.35738C5.5156 8.3822 5.78235 8.43462 6.02914 8.56036C6.42114 8.7601 6.73985 9.07881 6.93959 9.47081C7.06533 9.7176 7.11775 9.98435 7.14257 10.288C7.16666 10.583 7.16666 10.9472 7.16666 11.3988V11.5178C7.16666 11.9694 7.16666 12.3336 7.14257 12.6286C7.11775 12.9322 7.06533 13.199 6.93959 13.4458C6.73985 13.8378 6.42114 14.1565 6.02914 14.3562C5.78235 14.482 5.5156 14.5344 5.21192 14.5592C4.91697 14.5833 4.55274 14.5833 4.10117 14.5833H3.98214C3.53057 14.5833 3.16634 14.5833 2.8714 14.5592C2.56771 14.5344 2.30096 14.482 2.05418 14.3562C1.66217 14.1565 1.34346 13.8378 1.14373 13.4458C1.01798 13.199 0.96556 12.9322 0.940747 12.6286C0.916649 12.3336 0.916652 11.9694 0.916657 11.5178V11.3988C0.916652 10.9472 0.916649 10.583 0.940747 10.288C0.96556 9.98435 1.01798 9.7176 1.14373 9.47081C1.34346 9.07881 1.66217 8.7601 2.05418 8.56036C2.30096 8.43462 2.56771 8.3822 2.8714 8.35738C3.16634 8.33329 3.5306 8.33329 3.98215 8.33329Z" fill="#060F33"/>
<path d="M11.8988 8.33329H12.0178C12.4694 8.33329 12.8336 8.33329 13.1286 8.35738C13.4323 8.3822 13.699 8.43462 13.9458 8.56036C14.3378 8.7601 14.6565 9.07881 14.8563 9.47081C14.982 9.7176 15.0344 9.98435 15.0592 10.288C15.0833 10.583 15.0833 10.9472 15.0833 11.3988V11.5178C15.0833 11.9694 15.0833 12.3336 15.0592 12.6286C15.0344 12.9322 14.982 13.199 14.8563 13.4458C14.6565 13.8378 14.3378 14.1565 13.9458 14.3562C13.699 14.482 13.4323 14.5344 13.1286 14.5592C12.8336 14.5833 12.4694 14.5833 12.0178 14.5833H11.8988C11.4472 14.5833 11.083 14.5833 10.7881 14.5592C10.4844 14.5344 10.2176 14.482 9.97084 14.3562C9.57884 14.1565 9.26013 13.8378 9.06039 13.4458C8.93465 13.199 8.88223 12.9322 8.85741 12.6286C8.83332 12.3336 8.83332 11.9694 8.83332 11.5178V11.3988C8.83332 10.9472 8.83332 10.583 8.85741 10.288C8.88223 9.98435 8.93465 9.7176 9.06039 9.47081C9.26013 9.07881 9.57884 8.7601 9.97084 8.56036C10.2176 8.43462 10.4844 8.3822 10.7881 8.35738C11.083 8.33329 11.4473 8.33329 11.8988 8.33329Z" fill="#060F33"/>
<path d="M11.8988 0.416626H12.0178C12.4694 0.416622 12.8336 0.416619 13.1286 0.440717C13.4323 0.465529 13.699 0.517951 13.9458 0.643696C14.3378 0.843432 14.6565 1.16214 14.8563 1.55415C14.982 1.80093 15.0344 2.06768 15.0592 2.37137C15.0833 2.66631 15.0833 3.03054 15.0833 3.48211V3.60114C15.0833 4.05271 15.0833 4.41694 15.0592 4.71189C15.0344 5.01557 14.982 5.28232 14.8563 5.52911C14.6565 5.92111 14.3378 6.23982 13.9458 6.43956C13.699 6.5653 13.4323 6.61772 13.1286 6.64254C12.8336 6.66663 12.4694 6.66663 12.0178 6.66663H11.8988C11.4472 6.66663 11.083 6.66663 10.7881 6.64254C10.4844 6.61772 10.2176 6.5653 9.97084 6.43956C9.57884 6.23982 9.26013 5.92111 9.06039 5.52911C8.93465 5.28232 8.88223 5.01557 8.85741 4.71189C8.83332 4.41695 8.83332 4.05273 8.83332 3.60117V3.48212C8.83332 3.03057 8.83332 2.66631 8.85741 2.37137C8.88223 2.06768 8.93465 1.80093 9.06039 1.55415C9.26013 1.16214 9.57884 0.843432 9.97084 0.643696C10.2176 0.517951 10.4844 0.465529 10.7881 0.440717C11.083 0.416619 11.4472 0.416622 11.8988 0.416626Z" fill="#060F33"/>
</svg>
