<svg width="20" height="21" viewBox="0 0 20 21" fill="none" xmlns="http://www.w3.org/2000/svg">
<path fill-rule="evenodd" clip-rule="evenodd" d="M6.10118 3.41663H5.98217C5.53059 3.41662 5.16636 3.41662 4.87141 3.44072C4.56773 3.46553 4.30098 3.51795 4.05419 3.6437C3.66219 3.84343 3.34348 4.16214 3.14374 4.55415C3.018 4.80093 2.96557 5.06768 2.94076 5.37137C2.91666 5.66632 2.91667 6.03055 2.91667 6.48212V6.60113C2.91667 7.05271 2.91666 7.41694 2.94076 7.71189C2.96557 8.01557 3.018 8.28232 3.14374 8.52911C3.34348 8.92111 3.66219 9.23982 4.05419 9.43956C4.30098 9.5653 4.56772 9.61772 4.87141 9.64254C5.16636 9.66663 5.53059 9.66663 5.98216 9.66663H6.10119C6.55276 9.66663 6.91699 9.66663 7.21193 9.64254C7.51562 9.61772 7.78237 9.5653 8.02915 9.43956C8.42116 9.23982 8.73987 8.92111 8.9396 8.52911C9.06535 8.28232 9.11777 8.01557 9.14258 7.71189C9.16668 7.41694 9.16668 7.05271 9.16667 6.60114V6.48211C9.16668 6.03054 9.16668 5.66631 9.14258 5.37137C9.11777 5.06768 9.06535 4.80093 8.9396 4.55415C8.73987 4.16214 8.42116 3.84343 8.02915 3.6437C7.78237 3.51795 7.51562 3.46553 7.21193 3.44072C6.91698 3.41662 6.55275 3.41662 6.10118 3.41663ZM4.43252 4.3862C4.54225 4.33029 4.68712 4.29188 4.93927 4.27128C5.19629 4.25028 5.52642 4.24996 6.00001 4.24996H6.08334C6.55693 4.24996 6.88706 4.25028 7.14407 4.27128C7.39623 4.29188 7.5411 4.33029 7.65083 4.3862C7.88603 4.50604 8.07726 4.69727 8.1971 4.93247C8.25301 5.0422 8.29141 5.18707 8.31202 5.43923C8.33302 5.69624 8.33334 6.02637 8.33334 6.49996V6.58329C8.33334 7.05688 8.33302 7.38701 8.31202 7.64403C8.29141 7.89618 8.25301 8.04105 8.1971 8.15078C8.07726 8.38598 7.88603 8.57721 7.65083 8.69705C7.5411 8.75296 7.39623 8.79137 7.14407 8.81197C6.88706 8.83297 6.55693 8.83329 6.08334 8.83329H6.00001C5.52642 8.83329 5.19629 8.83297 4.93927 8.81197C4.68712 8.79137 4.54225 8.75296 4.43252 8.69705C4.19731 8.57721 4.00609 8.38598 3.88625 8.15078C3.83034 8.04105 3.79193 7.89618 3.77133 7.64403C3.75033 7.38701 3.75001 7.05688 3.75001 6.58329V6.49996C3.75001 6.02637 3.75033 5.69624 3.77133 5.43923C3.79193 5.18707 3.83034 5.0422 3.88625 4.93247C4.00609 4.69727 4.19731 4.50604 4.43252 4.3862Z" fill="#6A6F85"/>
<path fill-rule="evenodd" clip-rule="evenodd" d="M6.10118 11.3333H5.98217C5.53059 11.3333 5.16636 11.3333 4.87141 11.3574C4.56773 11.3822 4.30098 11.4346 4.05419 11.5604C3.66219 11.7601 3.34348 12.0788 3.14374 12.4708C3.018 12.7176 2.96557 12.9843 2.94076 13.288C2.91666 13.583 2.91667 13.9472 2.91667 14.3988V14.5178C2.91667 14.9694 2.91666 15.3336 2.94076 15.6286C2.96557 15.9322 3.018 16.199 3.14374 16.4458C3.34348 16.8378 3.66219 17.1565 4.05419 17.3562C4.30098 17.482 4.56772 17.5344 4.87141 17.5592C5.16636 17.5833 5.53059 17.5833 5.98216 17.5833H6.10119C6.55276 17.5833 6.91699 17.5833 7.21193 17.5592C7.51562 17.5344 7.78237 17.482 8.02915 17.3562C8.42116 17.1565 8.73987 16.8378 8.9396 16.4458C9.06535 16.199 9.11777 15.9322 9.14258 15.6286C9.16668 15.3336 9.16668 14.9694 9.16667 14.5178V14.3988C9.16668 13.9472 9.16668 13.583 9.14258 13.288C9.11777 12.9843 9.06535 12.7176 8.9396 12.4708C8.73987 12.0788 8.42116 11.7601 8.02915 11.5604C7.78237 11.4346 7.51562 11.3822 7.21193 11.3574C6.91698 11.3333 6.55275 11.3333 6.10118 11.3333ZM4.43252 12.3029C4.54225 12.247 4.68712 12.2086 4.93927 12.188C5.19629 12.167 5.52642 12.1666 6.00001 12.1666H6.08334C6.55693 12.1666 6.88706 12.167 7.14407 12.188C7.39623 12.2086 7.5411 12.247 7.65083 12.3029C7.88603 12.4227 8.07726 12.6139 8.1971 12.8491C8.25301 12.9589 8.29141 13.1037 8.31202 13.3559C8.33302 13.6129 8.33334 13.943 8.33334 14.4166V14.5C8.33334 14.9735 8.33302 15.3037 8.31202 15.5607C8.29141 15.8128 8.25301 15.9577 8.1971 16.0674C8.07726 16.3027 7.88603 16.4939 7.65083 16.6137C7.5411 16.6696 7.39623 16.708 7.14407 16.7286C6.88706 16.7496 6.55693 16.75 6.08334 16.75H6.00001C5.52642 16.75 5.19629 16.7496 4.93927 16.7286C4.68712 16.708 4.54225 16.6696 4.43252 16.6137C4.19731 16.4939 4.00609 16.3027 3.88625 16.0674C3.83034 15.9577 3.79193 15.8128 3.77133 15.5607C3.75033 15.3037 3.75001 14.9735 3.75001 14.5V14.4166C3.75001 13.943 3.75033 13.6129 3.77133 13.3559C3.79193 13.1037 3.83034 12.9589 3.88625 12.8491C4.00609 12.6139 4.19731 12.4227 4.43252 12.3029Z" fill="#6A6F85"/>
<path fill-rule="evenodd" clip-rule="evenodd" d="M13.8988 11.3333H14.0178C14.4694 11.3333 14.8337 11.3333 15.1286 11.3574C15.4323 11.3822 15.699 11.4346 15.9458 11.5604C16.3378 11.7601 16.6565 12.0788 16.8563 12.4708C16.982 12.7176 17.0344 12.9843 17.0592 13.288C17.0833 13.583 17.0833 13.9472 17.0833 14.3988V14.5178C17.0833 14.9694 17.0833 15.3336 17.0592 15.6286C17.0344 15.9322 16.982 16.199 16.8563 16.4458C16.6565 16.8378 16.3378 17.1565 15.9458 17.3562C15.699 17.482 15.4323 17.5344 15.1286 17.5592C14.8337 17.5833 14.4694 17.5833 14.0179 17.5833H13.8988C13.4473 17.5833 13.083 17.5833 12.7881 17.5592C12.4844 17.5344 12.2176 17.482 11.9709 17.3562C11.5789 17.1565 11.2601 16.8378 11.0604 16.4458C10.9347 16.199 10.8822 15.9322 10.8574 15.6286C10.8333 15.3336 10.8333 14.9694 10.8333 14.5178V14.3988C10.8333 13.9472 10.8333 13.583 10.8574 13.288C10.8822 12.9843 10.9347 12.7176 11.0604 12.4708C11.2601 12.0788 11.5789 11.7601 11.9709 11.5604C12.2176 11.4346 12.4844 11.3822 12.7881 11.3574C13.083 11.3333 13.4473 11.3333 13.8988 11.3333ZM12.8559 12.188C12.6038 12.2086 12.4589 12.247 12.3492 12.3029C12.114 12.4227 11.9228 12.6139 11.8029 12.8491C11.747 12.9589 11.7086 13.1037 11.688 13.3559C11.667 13.6129 11.6667 13.943 11.6667 14.4166V14.5C11.6667 14.9735 11.667 15.3037 11.688 15.5607C11.7086 15.8128 11.747 15.9577 11.8029 16.0674C11.9228 16.3027 12.114 16.4939 12.3492 16.6137C12.4589 16.6696 12.6038 16.708 12.8559 16.7286C13.113 16.7496 13.4431 16.75 13.9167 16.75H14C14.4736 16.75 14.8037 16.7496 15.0607 16.7286C15.3129 16.708 15.4578 16.6696 15.5675 16.6137C15.8027 16.4939 15.9939 16.3027 16.1138 16.0674C16.1697 15.9577 16.2081 15.8128 16.2287 15.5607C16.2497 15.3037 16.25 14.9735 16.25 14.5V14.4166C16.25 13.943 16.2497 13.6129 16.2287 13.3559C16.2081 13.1037 16.1697 12.9589 16.1138 12.8491C15.9939 12.6139 15.8027 12.4227 15.5675 12.3029C15.4578 12.247 15.3129 12.2086 15.0607 12.188C14.8037 12.167 14.4736 12.1666 14 12.1666H13.9167C13.4431 12.1666 13.113 12.167 12.8559 12.188Z" fill="#6A6F85"/>
<path fill-rule="evenodd" clip-rule="evenodd" d="M14.0178 3.41663H13.8988C13.4473 3.41662 13.083 3.41662 12.7881 3.44072C12.4844 3.46553 12.2176 3.51795 11.9709 3.6437C11.5789 3.84343 11.2601 4.16214 11.0604 4.55415C10.9347 4.80093 10.8822 5.06768 10.8574 5.37137C10.8333 5.66632 10.8333 6.03055 10.8333 6.48212V6.60113C10.8333 7.05271 10.8333 7.41694 10.8574 7.71189C10.8822 8.01557 10.9347 8.28232 11.0604 8.52911C11.2601 8.92111 11.5789 9.23982 11.9709 9.43956C12.2176 9.5653 12.4844 9.61772 12.7881 9.64254C13.083 9.66663 13.4473 9.66663 13.8988 9.66663H14.0179C14.4694 9.66663 14.8337 9.66663 15.1286 9.64254C15.4323 9.61772 15.699 9.5653 15.9458 9.43956C16.3378 9.23982 16.6565 8.92111 16.8563 8.52911C16.982 8.28232 17.0344 8.01557 17.0592 7.71189C17.0833 7.41694 17.0833 7.05271 17.0833 6.60114V6.48211C17.0833 6.03054 17.0833 5.66631 17.0592 5.37137C17.0344 5.06768 16.982 4.80093 16.8563 4.55415C16.6565 4.16214 16.3378 3.84343 15.9458 3.6437C15.699 3.51795 15.4323 3.46553 15.1286 3.44072C14.8337 3.41662 14.4694 3.41662 14.0178 3.41663ZM12.3492 4.3862C12.4589 4.33029 12.6038 4.29188 12.8559 4.27128C13.113 4.25028 13.4431 4.24996 13.9167 4.24996H14C14.4736 4.24996 14.8037 4.25028 15.0607 4.27128C15.3129 4.29188 15.4578 4.33029 15.5675 4.3862C15.8027 4.50604 15.9939 4.69727 16.1138 4.93247C16.1697 5.0422 16.2081 5.18707 16.2287 5.43923C16.2497 5.69624 16.25 6.02637 16.25 6.49996V6.58329C16.25 7.05688 16.2497 7.38701 16.2287 7.64403C16.2081 7.89618 16.1697 8.04105 16.1138 8.15078C15.9939 8.38598 15.8027 8.57721 15.5675 8.69705C15.4578 8.75296 15.3129 8.79137 15.0607 8.81197C14.8037 8.83297 14.4736 8.83329 14 8.83329H13.9167C13.4431 8.83329 13.113 8.83297 12.8559 8.81197C12.6038 8.79137 12.4589 8.75296 12.3492 8.69705C12.114 8.57721 11.9228 8.38598 11.8029 8.15078C11.747 8.04105 11.7086 7.89618 11.688 7.64403C11.667 7.38701 11.6667 7.05688 11.6667 6.58329V6.49996C11.6667 6.02637 11.667 5.69624 11.688 5.43923C11.7086 5.18707 11.747 5.0422 11.8029 4.93247C11.9228 4.69727 12.114 4.50604 12.3492 4.3862Z" fill="#6A6F85"/>
</svg>
