<svg width="20" height="21" viewBox="0 0 20 21" fill="none" xmlns="http://www.w3.org/2000/svg">
<rect width="20" height="20" transform="translate(0 0.5)" fill="none"/>
<path fill-rule="evenodd" clip-rule="evenodd" d="M10.7216 6.39599C10.2964 6.31371 9.85841 6.31245 9.43276 6.3923C9.00712 6.47214 8.6029 6.63137 8.24308 6.8602C7.51644 7.32232 7.01623 8.03851 6.84564 8.84747C6.80499 9.04021 6.63492 9.17816 6.43794 9.17816C5.72749 9.17816 5.04459 9.46543 4.53991 9.97927C4.03497 10.4934 3.74999 11.1922 3.74999 11.9224C3.74999 12.6526 4.03497 13.3515 4.53991 13.8656C5.04459 14.3794 5.72749 14.6667 6.43794 14.6667H14.3569C14.8503 14.6667 15.3292 14.4583 15.6865 14.078C16.0446 13.6968 16.25 13.1745 16.25 12.6248C16.25 12.0752 16.0446 11.5529 15.6865 11.1717C15.3292 10.7914 14.8503 10.583 14.3569 10.583H13.697C13.5714 10.583 13.4525 10.5264 13.3734 10.4288C13.2943 10.3313 13.2634 10.2033 13.2893 10.0804C13.3738 9.6796 13.3751 9.26696 13.2931 8.86572C13.2111 8.46446 13.0472 8.08167 12.81 7.73932C12.5727 7.39693 12.2665 7.1015 11.9082 6.87066C11.5499 6.63979 11.1467 6.47826 10.7216 6.39599ZM9.27912 5.57325C9.80788 5.47407 10.3517 5.47562 10.8799 5.57783C11.4081 5.68005 11.9109 5.88107 12.3595 6.17012C12.8082 6.45919 13.1943 6.83086 13.4949 7.26466C13.7956 7.69851 14.0047 8.1858 14.1096 8.69884C14.1804 9.04545 14.2027 9.39885 14.1763 9.74968H14.3569C15.0887 9.74968 15.7848 10.0593 16.2938 10.6011C16.802 11.142 17.0833 11.8704 17.0833 12.6248C17.0833 13.3793 16.802 14.1076 16.2938 14.6486C15.7848 15.1903 15.0887 15.5 14.3569 15.5H6.43794C5.50159 15.5 4.60515 15.1212 3.94538 14.4495C3.28586 13.778 2.91666 12.8689 2.91666 11.9224C2.91666 10.976 3.28586 10.0668 3.94538 9.39534C4.52785 8.8023 5.29479 8.4376 6.11079 8.36029C6.38266 7.45746 6.97977 6.67604 7.79589 6.15702C8.24631 5.87057 8.75035 5.67244 9.27912 5.57325Z" fill="#000000"/>
</svg>
