<svg width="20" height="21" viewBox="0 0 20 21" fill="none" xmlns="http://www.w3.org/2000/svg">
<rect width="20" height="20" transform="translate(0 0.5)" fill="none"/>
<path fill-rule="evenodd" clip-rule="evenodd" d="M10.1888 4.0275C10.5158 3.56027 11.25 3.79169 11.25 4.36202V8.41663H14.6799C15.1518 8.41663 15.4284 8.94786 15.1578 9.33448L9.81121 16.9724C9.48414 17.4396 8.74999 17.2082 8.74999 16.6379V12.5833H5.3201C4.84817 12.5833 4.57158 12.0521 4.84221 11.6654L10.1888 4.0275ZM10.4167 5.15511L5.80026 11.75H8.99999C9.32215 11.75 9.58332 12.0111 9.58332 12.3333V15.8448L14.1997 9.24996H11C10.6778 9.24996 10.4167 8.98879 10.4167 8.66663V5.15511Z" fill="#000000"/>
</svg>
