<svg width="20" height="21" viewBox="0 0 20 21" fill="none" xmlns="http://www.w3.org/2000/svg">
<rect width="20" height="20" transform="translate(0 0.5)" fill="none"/>
<path d="M15.9977 3.64692C15.8948 3.4411 15.6445 3.35767 15.4387 3.46058C15.2329 3.5635 15.1495 3.81378 15.2524 4.0196L15.3459 4.20662C15.7474 5.00958 15.7267 5.95893 15.2908 6.74369C14.5499 8.07723 13.2205 8.98033 11.7078 9.17764L9.5295 9.46176C9.30131 9.49153 9.14046 9.70063 9.17022 9.92882C9.19999 10.157 9.4091 10.3179 9.63728 10.2881L11.8155 10.004C13.5903 9.77249 15.15 8.71294 16.0192 7.14839C16.5888 6.12318 16.6157 4.88293 16.0912 3.83394L15.9977 3.64692Z" fill="#6A6F85"/>
<path d="M13.6563 4.05227C13.8806 4.00052 14.1043 4.14035 14.156 4.36457L14.2683 4.85113C14.5987 6.28308 13.6287 7.6898 12.1729 7.88998L11.0984 8.03771C11.092 8.0386 11.0855 8.03933 11.079 8.03992L9.33725 8.19668C8.31816 8.2884 7.62158 9.26821 7.86974 10.2609L7.90424 10.3989C7.96005 10.6221 7.82432 10.8483 7.60107 10.9042C7.37782 10.96 7.1516 10.8242 7.09579 10.601L7.06129 10.463C6.68904 8.97399 7.73392 7.50428 9.26255 7.3667L10.9946 7.21082L12.0593 7.06441C13.0299 6.93096 13.6766 5.99314 13.4563 5.03852L13.344 4.55195C13.2923 4.32773 13.4321 4.10401 13.6563 4.05227Z" fill="#6A6F85"/>
<path d="M12.0613 5.45594C12.2672 5.35303 12.3506 5.10275 12.2477 4.89692C12.1448 4.6911 11.8945 4.60767 11.6887 4.71058L11.5591 4.77534C11.1542 4.97784 10.7076 5.08326 10.2548 5.08326H9.46524C8.80212 5.08326 8.14509 5.20979 7.5294 5.45607C5.44717 6.28896 4.32071 8.55109 4.91078 10.7147L5.07948 11.3333H4.79167C4.59764 11.3333 4.4293 11.4672 4.38567 11.6562L3.13567 17.0729C3.08393 17.2971 3.22375 17.5209 3.44798 17.5726C3.6722 17.6243 3.89592 17.4845 3.94766 17.2603L5.12313 12.1666H5.61593C5.6218 12.1667 5.62768 12.1667 5.63357 12.1666H9.04354L10.219 17.2603C10.2707 17.4845 10.4945 17.6243 10.7187 17.5726C10.9429 17.5209 11.0827 17.2971 11.031 17.0729L9.781 11.6562C9.73737 11.4672 9.56902 11.3333 9.375 11.3333H5.94325L5.71475 10.4954C5.2361 8.74039 6.14985 6.90542 7.8389 6.2298C8.35615 6.0229 8.90814 5.9166 9.46524 5.9166H10.2548C10.8369 5.9166 11.4111 5.78105 11.9318 5.5207L12.0613 5.45594Z" fill="#6A6F85"/>
</svg>
