<svg width="20" height="21" viewBox="0 0 20 21" fill="none" xmlns="http://www.w3.org/2000/svg">
<path d="M7.50001 6.75002C7.26989 6.75002 7.08334 6.93657 7.08334 7.16669C7.08334 7.39681 7.26989 7.58335 7.50001 7.58335H12.5C12.7301 7.58335 12.9167 7.39681 12.9167 7.16669C12.9167 6.93657 12.7301 6.75002 12.5 6.75002H7.50001Z" fill="#6A6F85"/>
<path d="M7.50001 8.83335C7.26989 8.83335 7.08334 9.0199 7.08334 9.25002C7.08334 9.48014 7.26989 9.66669 7.50001 9.66669H12.5C12.7301 9.66669 12.9167 9.48014 12.9167 9.25002C12.9167 9.0199 12.7301 8.83335 12.5 8.83335H7.50001Z" fill="#6A6F85"/>
<path d="M7.50001 10.9167C7.26989 10.9167 7.08334 11.1032 7.08334 11.3334C7.08334 11.5635 7.26989 11.75 7.50001 11.75H9.16668C9.3968 11.75 9.58334 11.5635 9.58334 11.3334C9.58334 11.1032 9.3968 10.9167 9.16668 10.9167H7.50001Z" fill="#6A6F85"/>
<path fill-rule="evenodd" clip-rule="evenodd" d="M11.0185 3.41669H8.98151C8.29712 3.41668 7.75796 3.41668 7.32409 3.45213C6.88144 3.4883 6.51179 3.56343 6.17587 3.73458C5.62707 4.01422 5.18087 4.46041 4.90124 5.00921C4.73008 5.34513 4.65495 5.71478 4.61879 6.15743C4.58334 6.59131 4.58334 7.13045 4.58334 7.81484V13.1852C4.58334 13.8696 4.58334 14.4087 4.61879 14.8426C4.65495 15.2853 4.73008 15.6549 4.90124 15.9908C5.18087 16.5396 5.62707 16.9858 6.17587 17.2655C6.51179 17.4366 6.88144 17.5117 7.32409 17.5479C7.75796 17.5834 8.29711 17.5834 8.98149 17.5834H11.0185C11.7029 17.5834 12.2421 17.5834 12.6759 17.5479C13.1186 17.5117 13.4882 17.4366 13.8241 17.2655C14.373 16.9858 14.8191 16.5396 15.0988 15.9908C15.2699 15.6549 15.3451 15.2853 15.3812 14.8426C15.4167 14.4087 15.4167 13.8696 15.4167 13.1852V7.81484C15.4167 7.13045 15.4167 6.59131 15.3812 6.15743C15.3451 5.71478 15.2699 5.34513 15.0988 5.00921C14.8191 4.46041 14.373 4.01422 13.8241 3.73458C13.4882 3.56343 13.1186 3.4883 12.6759 3.45213C12.2421 3.41668 11.7029 3.41668 11.0185 3.41669ZM6.5542 4.47709C6.75306 4.37577 7.00083 4.31465 7.39195 4.2827C7.78792 4.25034 8.29307 4.25002 9.00001 4.25002H11C11.707 4.25002 12.2121 4.25034 12.6081 4.2827C12.9992 4.31465 13.247 4.37577 13.4458 4.47709C13.8378 4.67683 14.1565 4.99554 14.3563 5.38754C14.4576 5.5864 14.5187 5.83418 14.5507 6.22529C14.583 6.62127 14.5833 7.12641 14.5833 7.83335V13.1667C14.5833 13.8736 14.583 14.3788 14.5507 14.7748C14.5187 15.1659 14.4576 15.4136 14.3563 15.6125C14.1565 16.0045 13.8378 16.3232 13.4458 16.523C13.247 16.6243 12.9992 16.6854 12.6081 16.7173C12.2121 16.7497 11.707 16.75 11 16.75H9.00001C8.29307 16.75 7.78792 16.7497 7.39195 16.7173C7.00083 16.6854 6.75306 16.6243 6.5542 16.523C6.16219 16.3232 5.84348 16.0045 5.64375 15.6125C5.54242 15.4136 5.48131 15.1659 5.44935 14.7748C5.417 14.3788 5.41668 13.8736 5.41668 13.1667V7.83335C5.41668 7.12641 5.417 6.62127 5.44935 6.22529C5.48131 5.83418 5.54242 5.5864 5.64375 5.38754C5.84348 4.99554 6.16219 4.67683 6.5542 4.47709Z" fill="#6A6F85"/>
</svg>
